<?xml version="1.0" ?><!DOCTYPE svg  PUBLIC '-//W3C//DTD SVG 1.1//EN'  'http://www.w3.org/Graphics/SVG/1.1/DTD/svg11.dtd'><svg enable-background="new 0 0 100 100" height="100px" id="Layer_1" version="1.1" viewBox="0 0 100 100" width="100px" xml:space="preserve" xmlns="http://www.w3.org/2000/svg" xmlns:xlink="http://www.w3.org/1999/xlink"><g><g><linearGradient gradientTransform="matrix(0.2212 0.1607 -0.1972 0.2716 1058.5216 92.3359)" gradientUnits="userSpaceOnUse" id="SVGID_1_" x1="-3005.1729" x2="-2998.9268" y1="1636.625" y2="1604.9594"><stop offset="0.0057" style="stop-color:#97A3A9"/><stop offset="1" style="stop-color:#D9DBDC"/></linearGradient><path d="M76.547,50.955c1.578-2.133,2.137-4.375,1.254-5.008c-0.381-0.271-0.969-0.199-1.641,0.143    c0.174,1.596-0.311,4.021-2.648,7.547C74.443,53.238,75.572,52.27,76.547,50.955z" fill="url(#SVGID_1_)"/><radialGradient cx="103.8076" cy="289.2373" fx="106.4609" fy="287.4961" gradientTransform="matrix(1.1939 0 0 1.1726 -44.7393 -292.4053)" gradientUnits="userSpaceOnUse" id="SVGID_2_" r="3.7826"><stop offset="0.0057" style="stop-color:#A2C7D9"/><stop offset="1" style="stop-color:#070B11"/></radialGradient><path d="M83.455,46.268c0-0.857-0.932-1.557-2.09-1.557l-3.488,0.262c-1.154,0-2.09,0.695-2.09,1.555v0.906    c0,0.859,0.59,1.555,1.744,1.555h3.834c1.158,0,2.09-0.695,2.09-1.555V46.268z" fill="url(#SVGID_2_)"/><linearGradient gradientTransform="matrix(-0.2212 0.1607 0.1972 0.2716 140.7167 93.0532)" gradientUnits="userSpaceOnUse" id="SVGID_3_" x1="260.1563" x2="266.4047" y1="-296.3096" y2="-327.9872"><stop offset="0.0057" style="stop-color:#97A3A9"/><stop offset="1" style="stop-color:#D9DBDC"/></linearGradient><path d="M19.223,51.424c-1.578-2.135-2.141-4.373-1.253-5.008c0.378-0.271,0.968-0.199,1.639,0.141    c-0.173,1.596,0.31,4.023,2.653,7.549C21.326,53.705,20.197,52.738,19.223,51.424z" fill="url(#SVGID_3_)"/><radialGradient cx="51.8018" cy="288.8896" fx="48.484" fy="287.3967" gradientTransform="matrix(1.1939 0 0 1.1726 -45.6191 -291.1963)" gradientUnits="userSpaceOnUse" id="SVGID_4_" r="3.6382"><stop offset="0.0057" style="stop-color:#A2C7D9"/><stop offset="1" style="stop-color:#070B11"/></radialGradient><path d="M12.313,47.07c0-0.861,0.938-1.557,2.094-1.557l3.482,0.258c1.156,0,2.094,0.699,2.094,1.559    l-0.014,0.908c0,0.857-0.574,1.553-1.732,1.553h-3.83c-1.156,0-2.094-0.695-2.094-1.553V47.07z" fill="url(#SVGID_4_)"/><path d="M12.408,47.164c0-0.861,0.935-1.559,2.09-1.559l3.486,0.26c0.676,0,1.273,0.246,1.656,0.615    c-0.375-0.426-1.018-0.709-1.752-0.709l-3.482-0.258c-1.156,0-2.094,0.695-2.094,1.557v1.168c0,0.355,0.164,0.678,0.434,0.941    c-0.214-0.244-0.338-0.539-0.338-0.852V47.164z" fill="#070B11"/><path d="M83.365,46.357c0-0.857-0.938-1.555-2.094-1.555l-3.484,0.26c-0.678,0-1.273,0.244-1.658,0.615    c0.375-0.426,1.02-0.705,1.748-0.705l3.488-0.262c1.158,0,2.09,0.699,2.09,1.557v1.166c0,0.357-0.162,0.682-0.434,0.941    c0.219-0.244,0.344-0.533,0.344-0.85V46.357z" fill="#070B11"/><path d="M75.262,48.938c-6.785-14.48-9.619-12.971-27.229-12.971c-17.613,0-20.445-1.51-27.232,12.971    c-3.844,8.211,12.193,15.961,27.232,15.961S79.107,57.148,75.262,48.938z" fill="#DA2128"/><linearGradient gradientTransform="matrix(0.3356 0 0 0.3356 1460.4741 -346.2148)" gradientUnits="userSpaceOnUse" id="SVGID_5_" x1="-4207.9302" x2="-4205.3145" y1="1175.7998" y2="1135.9104"><stop offset="0" style="stop-color:#FFFFFF"/><stop offset="0.0852" style="stop-color:#F7FBFC"/><stop offset="0.2204" style="stop-color:#E0F0F6"/><stop offset="0.3889" style="stop-color:#BADFEA"/><stop offset="0.5841" style="stop-color:#86C7DA"/><stop offset="0.7988" style="stop-color:#44A9C7"/><stop offset="1" style="stop-color:#0089B2"/></linearGradient><path d="M52.573,36.883l-4.54,0.024l-4.545-0.024c-6.628-0.059-10.634-0.092-13.561,1.389    c-2.823,1.432-4.141,4.314-7.276,11.008c-0.933,1.984-1.365,4.006,0.28,6.02c4.031,4.934,14.826,8.656,25.102,8.656    c10.271,0,21.064-3.723,25.1-8.656c1.646-2.014,1.209-4.035,0.281-6.02c-3.137-6.693-4.451-9.576-7.279-11.008    C63.209,36.791,59.201,36.824,52.573,36.883z" fill="url(#SVGID_5_)"/><linearGradient gradientTransform="matrix(0.3356 0 0 0.3356 1460.4741 -346.2148)" gradientUnits="userSpaceOnUse" id="SVGID_6_" x1="-4208.0791" x2="-4205.9595" y1="1176.9521" y2="1144.6271"><stop offset="0" style="stop-color:#FFFFFF"/><stop offset="0.092" style="stop-color:#F7FDFE"/><stop offset="0.2382" style="stop-color:#E0F6FC"/><stop offset="0.4202" style="stop-color:#BAEBF9"/><stop offset="0.631" style="stop-color:#86DDF4"/><stop offset="0.863" style="stop-color:#44CAEE"/><stop offset="1" style="stop-color:#1ABEEA"/></linearGradient><path d="M51.712,39.45l-3.679,0.02l-3.685-0.02c-5.37-0.048-8.616-0.075-10.986,1.126    c-2.29,1.16-3.358,3.494-5.898,8.92c-0.755,1.607-1.106,3.246,0.226,4.877c3.27,3.998,12.018,7.016,20.344,7.016    s17.07-3.018,20.34-7.016c1.332-1.631,0.98-3.27,0.229-4.877c-2.545-5.426-3.611-7.76-5.9-8.92    C60.332,39.375,57.084,39.402,51.712,39.45z" fill="url(#SVGID_6_)"/><linearGradient gradientUnits="userSpaceOnUse" id="SVGID_7_" x1="34.123" x2="34.8826" y1="46.9248" y2="35.3419"><stop offset="0" style="stop-color:#FFFFFF"/><stop offset="0.092" style="stop-color:#F7FDFE"/><stop offset="0.2382" style="stop-color:#E0F6FC"/><stop offset="0.4202" style="stop-color:#BAEBF9"/><stop offset="0.631" style="stop-color:#86DDF4"/><stop offset="0.863" style="stop-color:#44CAEE"/><stop offset="1" style="stop-color:#1ABEEA"/></linearGradient><path d="M36.994,36.918L26.428,58.191c1.102,0.73,2.348,1.412,3.71,2.031l11.601-23.354    C39.963,36.859,38.39,36.863,36.994,36.918z" fill="url(#SVGID_7_)"/><linearGradient gradientUnits="userSpaceOnUse" id="SVGID_8_" x1="38.144" x2="38.9381" y1="47.4785" y2="35.3688"><stop offset="0" style="stop-color:#FFFFFF"/><stop offset="0.092" style="stop-color:#F7FDFE"/><stop offset="0.2382" style="stop-color:#E0F6FC"/><stop offset="0.4202" style="stop-color:#BAEBF9"/><stop offset="0.631" style="stop-color:#86DDF4"/><stop offset="0.863" style="stop-color:#44CAEE"/><stop offset="1" style="stop-color:#1ABEEA"/></linearGradient><path d="M43.661,36.883c-0.231-0.002-0.459-0.002-0.687-0.008L31.164,60.666    c0.543,0.223,1.096,0.436,1.669,0.641l12.122-24.416L43.661,36.883z" fill="url(#SVGID_8_)"/><linearGradient gradientTransform="matrix(0.3356 0 0 0.3356 1461.4741 -342.6035)" gradientUnits="userSpaceOnUse" id="SVGID_9_" x1="-4197.3203" x2="-4159.0723" y1="1155.0479" y2="1155.0479"><stop offset="0" style="stop-color:#94B9CB"/><stop offset="0.4827" style="stop-color:#91B2C3"/><stop offset="1" style="stop-color:#8BA7B4"/></linearGradient><path d="M59.318,42.125c-3.225,0-5.897,2.316-6.393,5.348c0.353,0.004,0.703,0.006,1.049,0.008    c0.477-2.473,2.688-4.338,5.344-4.338c2.785,0,5.084,2.061,5.4,4.713c0.35,0.023,0.697,0.051,1.043,0.08    C65.479,44.682,62.703,42.125,59.318,42.125z" fill="url(#SVGID_9_)"/><g><path d="M30.707,69.369c0-1.707-1.409-3.092-3.146-3.092h-2.94c-1.74,0-3.15,1.385-3.15,3.092v7.906     c0,1.707,1.41,3.09,3.15,3.09h2.94c1.736,0,3.146-1.383,3.146-3.09V69.369z" fill="#231F20"/><linearGradient gradientTransform="matrix(0.3885 -0.0685 0.0685 0.3885 1652.7681 -379.0503)" gradientUnits="userSpaceOnUse" id="SVGID_10_" x1="-4265.7036" x2="-4257.8179" y1="434.3838" y2="394.4063"><stop offset="0.0057" style="stop-color:#606770"/><stop offset="0.0612" style="stop-color:#5E656C"/><stop offset="0.1149" style="stop-color:#585D61"/><stop offset="0.1679" style="stop-color:#4D514D"/><stop offset="0.2204" style="stop-color:#3F4032"/><stop offset="0.2721" style="stop-color:#2C2B0F"/><stop offset="0.2825" style="stop-color:#282607"/><stop offset="0.3645" style="stop-color:#37361D"/><stop offset="0.574" style="stop-color:#5B5C4F"/><stop offset="0.7573" style="stop-color:#757873"/><stop offset="0.9055" style="stop-color:#85898A"/><stop offset="1" style="stop-color:#8B8F92"/></linearGradient><path d="M29.312,69.107c-0.302-1.684-1.937-2.807-3.65-2.508l-2.892,0.502     c-1.712,0.295-2.855,1.9-2.555,3.582l1.395,7.785c0.305,1.682,1.938,2.805,3.648,2.508l2.896-0.5     c1.714-0.301,2.857-1.9,2.553-3.58L29.312,69.107z" fill="url(#SVGID_10_)"/></g><g><path d="M67.109,69.369c0-1.707,1.41-3.092,3.15-3.092h2.939c1.74,0,3.148,1.385,3.148,3.092v7.906     c0,1.707-1.408,3.09-3.148,3.09H70.26c-1.74,0-3.15-1.383-3.15-3.09V69.369z" fill="#231F20"/><linearGradient gradientTransform="matrix(-0.3885 -0.0685 -0.0685 0.3885 -450.4458 -379.0503)" gradientUnits="userSpaceOnUse" id="SVGID_11_" x1="-1508.4326" x2="-1500.547" y1="920.5566" y2="880.5792"><stop offset="0.0057" style="stop-color:#606770"/><stop offset="0.0612" style="stop-color:#5E656C"/><stop offset="0.1149" style="stop-color:#585D61"/><stop offset="0.1679" style="stop-color:#4D514D"/><stop offset="0.2204" style="stop-color:#3F4032"/><stop offset="0.2721" style="stop-color:#2C2B0F"/><stop offset="0.2825" style="stop-color:#282607"/><stop offset="0.3645" style="stop-color:#37361D"/><stop offset="0.574" style="stop-color:#5B5C4F"/><stop offset="0.7573" style="stop-color:#757873"/><stop offset="0.9055" style="stop-color:#85898A"/><stop offset="1" style="stop-color:#8B8F92"/></linearGradient><path d="M68.51,69.107c0.301-1.684,1.936-2.807,3.646-2.508l2.896,0.502     c1.713,0.295,2.855,1.9,2.551,3.582l-1.395,7.785c-0.301,1.682-1.936,2.805-3.648,2.508l-2.895-0.5     c-1.715-0.301-2.857-1.9-2.557-3.58L68.51,69.107z" fill="url(#SVGID_11_)"/></g><g><path d="M37.651,69.02c0-1.059-0.874-1.916-1.952-1.916h-1.816c-1.077,0-1.949,0.857-1.949,1.916v4.893     c0,1.053,0.872,1.91,1.949,1.91h1.816c1.078,0,1.952-0.857,1.952-1.91V69.02z" fill="#231F20"/><linearGradient gradientTransform="matrix(0.2404 -0.0424 0.0424 0.2404 1252.1873 -439.8062)" gradientUnits="userSpaceOnUse" id="SVGID_12_" x1="-5280.8691" x2="-5272.9829" y1="1217.7822" y2="1177.8013"><stop offset="0.0057" style="stop-color:#606770"/><stop offset="0.0612" style="stop-color:#5E656C"/><stop offset="0.1149" style="stop-color:#585D61"/><stop offset="0.1679" style="stop-color:#4D514D"/><stop offset="0.2204" style="stop-color:#3F4032"/><stop offset="0.2721" style="stop-color:#2C2B0F"/><stop offset="0.2825" style="stop-color:#282607"/><stop offset="0.3645" style="stop-color:#37361D"/><stop offset="0.574" style="stop-color:#5B5C4F"/><stop offset="0.7573" style="stop-color:#757873"/><stop offset="0.9055" style="stop-color:#85898A"/><stop offset="1" style="stop-color:#8B8F92"/></linearGradient><path d="M36.783,68.857c-0.184-1.041-1.195-1.736-2.258-1.551l-1.786,0.311     c-1.063,0.184-1.772,1.176-1.581,2.215l0.861,4.816c0.189,1.041,1.199,1.738,2.26,1.553l1.787-0.313     c1.061-0.182,1.768-1.174,1.585-2.215L36.783,68.857z" fill="url(#SVGID_12_)"/></g><g><path d="M60.17,69.02c0-1.059,0.875-1.916,1.951-1.916h1.816c1.078,0,1.949,0.857,1.949,1.916v4.893     c0,1.053-0.871,1.91-1.949,1.91h-1.816c-1.076,0-1.951-0.857-1.951-1.91V69.02z" fill="#231F20"/><linearGradient gradientTransform="matrix(-0.2404 -0.0424 -0.0424 0.2404 -49.8655 -439.8062)" gradientUnits="userSpaceOnUse" id="SVGID_13_" x1="-825.0479" x2="-817.1613" y1="2003.6523" y2="1963.6697"><stop offset="0.0057" style="stop-color:#606770"/><stop offset="0.0612" style="stop-color:#5E656C"/><stop offset="0.1149" style="stop-color:#585D61"/><stop offset="0.1679" style="stop-color:#4D514D"/><stop offset="0.2204" style="stop-color:#3F4032"/><stop offset="0.2721" style="stop-color:#2C2B0F"/><stop offset="0.2825" style="stop-color:#282607"/><stop offset="0.3645" style="stop-color:#37361D"/><stop offset="0.574" style="stop-color:#5B5C4F"/><stop offset="0.7573" style="stop-color:#757873"/><stop offset="0.9055" style="stop-color:#85898A"/><stop offset="1" style="stop-color:#8B8F92"/></linearGradient><path d="M61.033,68.857c0.191-1.041,1.199-1.736,2.26-1.551l1.791,0.311     c1.063,0.184,1.77,1.176,1.58,2.215l-0.861,4.816c-0.191,1.041-1.197,1.738-2.262,1.553l-1.789-0.313     c-1.059-0.182-1.768-1.174-1.582-2.215L61.033,68.857z" fill="url(#SVGID_13_)"/></g><linearGradient gradientTransform="matrix(0.3356 0 0 0.2861 1113.332 -480.1538)" gradientUnits="userSpaceOnUse" id="SVGID_14_" x1="-3173.228" x2="-3171.2671" y1="1933.2344" y2="1846.9521"><stop offset="0.0057" style="stop-color:#C8252C"/><stop offset="0.0934" style="stop-color:#CC292C"/><stop offset="0.1781" style="stop-color:#D7342E"/><stop offset="0.2614" style="stop-color:#E94830"/><stop offset="0.2825" style="stop-color:#EF4E31"/><stop offset="0.5681" style="stop-color:#CF362A"/><stop offset="0.8318" style="stop-color:#B92526"/><stop offset="1" style="stop-color:#B11F24"/></linearGradient><path d="M81.092,53.428c-2.316-5.918-14.518-6.727-32.428-6.727s-30.111,0.809-32.429,6.727    c-8.978,22.928,11.454,20.67,32.429,20.67C69.637,74.098,90.072,76.355,81.092,53.428z" fill="url(#SVGID_14_)"/><linearGradient gradientTransform="matrix(0.3356 0 0 0.3356 1501.626 -334.6899)" gradientUnits="userSpaceOnUse" id="SVGID_15_" x1="-4388.1357" x2="-4387.9102" y1="1191.1914" y2="1181.2581"><stop offset="0.0057" style="stop-color:#931619"/><stop offset="0.5031" style="stop-color:#8F1517"/><stop offset="0.9831" style="stop-color:#841012"/><stop offset="1" style="stop-color:#831012"/></linearGradient><path d="M29.245,61.523h-0.087c-1.268,0-2.295,0.84-2.295,1.873c0,1.035,1.027,1.875,2.295,1.875    c1.308,0,2.002-1.428,2.002-2.457c0-0.398-0.109-0.699-0.338-0.926C30.444,61.523,29.914,61.523,29.245,61.523z" fill="url(#SVGID_15_)"/><linearGradient gradientTransform="matrix(-0.3356 0 0 0.3356 -301.0542 -334.6899)" gradientUnits="userSpaceOnUse" id="SVGID_16_" x1="-1098.7544" x2="-1098.5287" y1="1191.1904" y2="1181.2577"><stop offset="0.0057" style="stop-color:#931619"/><stop offset="0.5031" style="stop-color:#8F1517"/><stop offset="0.9831" style="stop-color:#841012"/><stop offset="1" style="stop-color:#831012"/></linearGradient><path d="M67.412,61.523h0.086c1.266,0,2.295,0.84,2.295,1.873c0,1.035-1.029,1.875-2.295,1.875    c-1.309,0-2.004-1.428-2.004-2.457c0-0.398,0.109-0.699,0.338-0.926C66.209,61.523,66.738,61.523,67.412,61.523z" fill="url(#SVGID_16_)"/><g><linearGradient gradientTransform="matrix(0.3755 0 0 0.3755 1559.7043 -223.1292)" gradientUnits="userSpaceOnUse" id="SVGID_17_" x1="-4029.7314" x2="-4018.5425" y1="801.4902" y2="744.7663"><stop offset="0.0057" style="stop-color:#89949A"/><stop offset="1" style="stop-color:#D9DBDC"/></linearGradient><path d="M16.73,67.957c3.814,1.268,8,0.178,11.672,1.23c2.39,0.686,3.109,1.729,5.682,1.729     c2.481,0,4.961,0,7.438,0c4.201,0,8.192,0.945,12.511,0.793c4.445-0.152,8.963-1.525,13.313-2.131     c2.535-0.354,5.033,0.342,7.52-0.084c2.648-0.453,5.092-1.67,7.738-2.15c0.477-0.084,1.014-0.176,1.572-0.258     c-1.002-2.824-16.52,2.295-35.512,2.295c-19.639,0-35.563-5.475-35.563-1.979c0,0.148,0.032,0.297,0.093,0.449     C14.182,67.377,15.408,67.516,16.73,67.957z" fill="url(#SVGID_17_)"/><linearGradient gradientTransform="matrix(0.3755 0 0 0.3755 1691.428 -318.8889)" gradientUnits="userSpaceOnUse" id="SVGID_18_" x1="-4374.7466" x2="-4374.7466" y1="1047.3984" y2="1037.3848"><stop offset="0.0057" style="stop-color:#97A3A9"/><stop offset="1" style="stop-color:#D9DBDC"/></linearGradient><path d="M48.664,73.736c19.637,0,35.563-2.838,35.563-6.334c0-0.115-0.02-0.219-0.051-0.316     c-0.559,0.082-1.096,0.174-1.572,0.258c-2.646,0.48-5.09,1.697-7.738,2.15c-2.486,0.426-4.984-0.27-7.52,0.084     c-4.35,0.605-8.867,1.979-13.313,2.131c-4.318,0.152-8.31-0.793-12.511-0.793c-2.478,0-4.957,0-7.438,0     c-2.572,0-3.292-1.043-5.682-1.729c-3.672-1.053-7.857,0.037-11.672-1.23c-1.322-0.441-2.549-0.58-3.537-0.105     C14.477,71.137,29.865,73.736,48.664,73.736z" fill="url(#SVGID_18_)"/></g><radialGradient cx="77.4326" cy="283.0195" fx="75.2761" fy="281.9413" gradientTransform="matrix(1.1939 0 0 1.1726 -44.7393 -292.4053)" gradientUnits="userSpaceOnUse" id="SVGID_19_" r="2.7571"><stop offset="0.0057" style="stop-color:#BCDBEB"/><stop offset="1" style="stop-color:#003546"/></radialGradient><path d="M51.033,39.388c0,0.729-0.602,1.321-1.34,1.321h-3.511c-0.746,0-1.345-0.592-1.345-1.321l0,0    c0-0.727,0.599-1.314,1.345-1.314h3.511C50.432,38.073,51.033,38.661,51.033,39.388L51.033,39.388z" fill="url(#SVGID_19_)"/><path d="M46.183,38.151h3.511c0.725,0,1.316,0.571,1.335,1.278c0-0.014,0.005-0.027,0.005-0.042    c0-0.727-0.602-1.314-1.34-1.314h-3.511c-0.746,0-1.345,0.588-1.345,1.314c0,0.015,0.003,0.028,0.003,0.042    C44.865,38.723,45.454,38.151,46.183,38.151z" fill="#004562"/><radialGradient cx="-4209.168" cy="1147.1318" gradientTransform="matrix(0.3365 0 0 0.3305 1464.0957 -340.2209)" gradientUnits="userSpaceOnUse" id="SVGID_20_" r="6.8435"><stop offset="0.0057" style="stop-color:#B3D9EC"/><stop offset="1" style="stop-color:#1B414F"/></radialGradient><path d="M47.57,38.885c0,0.188,0.154,0.338,0.342,0.338c0.187,0,0.342-0.15,0.342-0.338v-1.964H47.57    V38.885z" fill="url(#SVGID_20_)"/><linearGradient gradientUnits="userSpaceOnUse" id="SVGID_21_" x1="22.6265" x2="72.6343" y1="47.0112" y2="47.0112"><stop offset="0" style="stop-color:#94B9CB"/><stop offset="0.4827" style="stop-color:#91B2C3"/><stop offset="1" style="stop-color:#8BA7B4"/></linearGradient><path d="M22.941,48.656c0,0,25.752-7.148,50.008-0.371C72.949,48.285,45.834,45.242,22.941,48.656z" fill="url(#SVGID_21_)"/><g><linearGradient gradientUnits="userSpaceOnUse" id="SVGID_22_" x1="48.6318" x2="48.8485" y1="66.4111" y2="56.876"><stop offset="0.0057" style="stop-color:#931619"/><stop offset="0.5031" style="stop-color:#8F1517"/><stop offset="0.9831" style="stop-color:#841012"/><stop offset="1" style="stop-color:#831012"/></linearGradient><path d="M63.463,60.48c0,5.375-5.086,6.488-14.697,6.488S34.07,65.855,34.07,60.48     c0-5.377,5.084-3.941,14.695-3.941S63.463,55.104,63.463,60.48z" fill="url(#SVGID_22_)"/><linearGradient gradientUnits="userSpaceOnUse" id="SVGID_23_" x1="48.8267" x2="48.6667" y1="55.4512" y2="66.3297"><stop offset="0" style="stop-color:#CCCBCA"/><stop offset="0.9944" style="stop-color:#717277"/></linearGradient><path d="M63.463,59.518c0,5.377-5.086,6.488-14.697,6.488S34.07,64.895,34.07,59.518     s5.084-3.941,14.695-3.941S63.463,54.141,63.463,59.518z" fill="url(#SVGID_23_)"/><linearGradient gradientUnits="userSpaceOnUse" id="SVGID_24_" x1="49.75" x2="48.2179" y1="73.0166" y2="51.9856"><stop offset="0" style="stop-color:#CCCBCA"/><stop offset="1" style="stop-color:#737479"/></linearGradient><path d="M53.82,56.295c-1.499,0.045-3.197,0.1-5.055,0.1s-3.555-0.055-5.053-0.1     c-4.016-0.125-6.917-0.219-8.077,0.887c-0.499,0.475-0.732,1.217-0.732,2.336c0,4.242,3.499,5.672,13.862,5.672     c10.365,0,13.863-1.43,13.863-5.672c0-1.119-0.234-1.861-0.734-2.336C60.734,56.076,57.834,56.17,53.82,56.295z" fill="url(#SVGID_24_)"/><linearGradient gradientUnits="userSpaceOnUse" id="SVGID_25_" x1="48.7666" x2="48.7668" y1="65.1904" y2="56.8839"><stop offset="0" style="stop-color:#8C8D8E"/><stop offset="1" style="stop-color:#1F1E22"/></linearGradient><path d="M53.506,56.789c-1.404,0.045-2.998,0.096-4.738,0.096c-1.746,0-3.338-0.051-4.744-0.096     c-3.707-0.117-6.387-0.203-7.407,0.771c-0.267,0.252-0.618,0.738-0.618,2.033c0,3.813,3.221,5.1,12.77,5.1     c9.545,0,12.768-1.287,12.768-5.1c0-1.295-0.355-1.781-0.619-2.033C59.893,56.588,57.213,56.672,53.506,56.789z" fill="url(#SVGID_25_)"/><linearGradient gradientUnits="userSpaceOnUse" id="SVGID_26_" x1="38.7427" x2="38.7427" y1="65.1328" y2="56.7963"><stop offset="0" style="stop-color:#CCCBCA"/><stop offset="1" style="stop-color:#737479"/></linearGradient><path d="M37.714,56.998v6.045c0.541,0.35,1.224,0.635,2.058,0.863v-7.164     C38.961,56.775,38.27,56.85,37.714,56.998z" fill="url(#SVGID_26_)"/><linearGradient gradientUnits="userSpaceOnUse" id="SVGID_27_" x1="42.7349" x2="42.7349" y1="65.1328" y2="56.7953"><stop offset="0" style="stop-color:#CCCBCA"/><stop offset="1" style="stop-color:#737479"/></linearGradient><path d="M41.705,56.73v7.572c0.626,0.096,1.313,0.17,2.06,0.227v-7.744     C43.035,56.764,42.348,56.742,41.705,56.73z" fill="url(#SVGID_27_)"/><linearGradient gradientUnits="userSpaceOnUse" id="SVGID_28_" x1="46.7275" x2="46.7275" y1="65.1348" y2="56.7963"><stop offset="0" style="stop-color:#CCCBCA"/><stop offset="1" style="stop-color:#737479"/></linearGradient><path d="M45.697,56.842v7.799c0.649,0.025,1.334,0.041,2.061,0.049v-7.809     C47.041,56.873,46.354,56.859,45.697,56.842z" fill="url(#SVGID_28_)"/><linearGradient gradientUnits="userSpaceOnUse" id="SVGID_29_" x1="50.7202" x2="50.7202" y1="65.1348" y2="56.7963"><stop offset="0" style="stop-color:#CCCBCA"/><stop offset="1" style="stop-color:#737479"/></linearGradient><path d="M49.691,56.881v7.809c0.725-0.008,1.41-0.023,2.057-0.049v-7.799     C51.092,56.859,50.406,56.873,49.691,56.881z" fill="url(#SVGID_29_)"/><linearGradient gradientUnits="userSpaceOnUse" id="SVGID_30_" x1="54.7119" x2="54.7119" y1="65.1328" y2="56.7952"><stop offset="0" style="stop-color:#CCCBCA"/><stop offset="1" style="stop-color:#737479"/></linearGradient><path d="M53.682,56.785v7.744c0.748-0.057,1.434-0.131,2.061-0.225V56.73     C55.1,56.742,54.414,56.764,53.682,56.785z" fill="url(#SVGID_30_)"/><linearGradient gradientUnits="userSpaceOnUse" id="SVGID_31_" x1="58.7051" x2="58.7051" y1="65.1318" y2="56.7955"><stop offset="0" style="stop-color:#CCCBCA"/><stop offset="1" style="stop-color:#737479"/></linearGradient><path d="M57.676,56.742v7.164c0.836-0.229,1.516-0.514,2.059-0.863v-6.045     C59.178,56.85,58.486,56.775,57.676,56.742z" fill="url(#SVGID_31_)"/></g><linearGradient gradientUnits="userSpaceOnUse" id="SVGID_32_" x1="74.8867" x2="75.0769" y1="62.4883" y2="54.1197"><stop offset="0.0057" style="stop-color:#931619"/><stop offset="0.5031" style="stop-color:#8F1517"/><stop offset="0.9831" style="stop-color:#841012"/><stop offset="1" style="stop-color:#831012"/></linearGradient><ellipse cx="74.983" cy="58.273" fill="url(#SVGID_32_)" rx="4.792" ry="4.705"/><linearGradient gradientUnits="userSpaceOnUse" id="SVGID_33_" x1="74.4844" x2="75.4748" y1="61.6465" y2="53.6847"><stop offset="0.0057" style="stop-color:#97A3A9"/><stop offset="1" style="stop-color:#D9DBDC"/></linearGradient><ellipse cx="74.983" cy="57.631" fill="url(#SVGID_33_)" rx="4.792" ry="4.707"/><linearGradient gradientUnits="userSpaceOnUse" id="SVGID_34_" x1="73.9805" x2="75.9917" y1="62.7178" y2="52.5216"><stop offset="0.0057" style="stop-color:#788187"/><stop offset="0.3079" style="stop-color:#A1A7AB"/><stop offset="0.5913" style="stop-color:#C0C3C6"/><stop offset="0.8316" style="stop-color:#D2D5D6"/><stop offset="1" style="stop-color:#D9DBDC"/></linearGradient><ellipse cx="74.983" cy="57.631" fill="url(#SVGID_34_)" rx="3.72" ry="3.654"/><linearGradient gradientUnits="userSpaceOnUse" id="SVGID_35_" x1="75.2021" x2="74.7592" y1="60.9033" y2="54.324"><stop offset="0" style="stop-color:#FFFFFF"/><stop offset="0.106" style="stop-color:#FAFDFF"/><stop offset="0.2379" style="stop-color:#EAF9FD"/><stop offset="0.3838" style="stop-color:#D1F2FB"/><stop offset="0.5396" style="stop-color:#ADE8F8"/><stop offset="0.7034" style="stop-color:#80DBF3"/><stop offset="0.8712" style="stop-color:#49CBEE"/><stop offset="1" style="stop-color:#1ABEEA"/></linearGradient><path d="M78.33,57.631c0,1.814-1.498,3.287-3.346,3.287s-3.35-1.473-3.35-3.287    c0-1.813,1.502-3.285,3.35-3.285S78.33,55.818,78.33,57.631z" fill="url(#SVGID_35_)"/><path d="M76.02,56.93c0,0.951-0.752,1.721-1.682,1.721s-1.684-0.77-1.684-1.721c0-0.947,0.754-1.717,1.684-1.717    S76.02,55.982,76.02,56.93z" fill="#FFFFFF"/><linearGradient gradientUnits="userSpaceOnUse" id="SVGID_36_" x1="21.9849" x2="22.1751" y1="62.4883" y2="54.1197"><stop offset="0.0057" style="stop-color:#931619"/><stop offset="0.5031" style="stop-color:#8F1517"/><stop offset="0.9831" style="stop-color:#841012"/><stop offset="1" style="stop-color:#831012"/></linearGradient><ellipse cx="22.081" cy="58.273" fill="url(#SVGID_36_)" rx="4.792" ry="4.705"/><linearGradient gradientTransform="matrix(-1 0 0 1 -536.0967 0)" gradientUnits="userSpaceOnUse" id="SVGID_37_" x1="-558.6763" x2="-557.6859" y1="61.6465" y2="53.6849"><stop offset="0.0057" style="stop-color:#97A3A9"/><stop offset="1" style="stop-color:#D9DBDC"/></linearGradient><ellipse cx="22.081" cy="57.631" fill="url(#SVGID_37_)" rx="4.792" ry="4.707"/><linearGradient gradientTransform="matrix(-1 0 0 1 -536.0967 0)" gradientUnits="userSpaceOnUse" id="SVGID_38_" x1="-559.1816" x2="-557.1704" y1="62.7178" y2="52.5213"><stop offset="0.0057" style="stop-color:#788187"/><stop offset="0.3079" style="stop-color:#A1A7AB"/><stop offset="0.5913" style="stop-color:#C0C3C6"/><stop offset="0.8316" style="stop-color:#D2D5D6"/><stop offset="1" style="stop-color:#D9DBDC"/></linearGradient><ellipse cx="22.081" cy="57.631" fill="url(#SVGID_38_)" rx="3.72" ry="3.654"/><linearGradient gradientTransform="matrix(-1 0 0 1 -536.0967 0)" gradientUnits="userSpaceOnUse" id="SVGID_39_" x1="-557.9565" x2="-558.3995" y1="60.9033" y2="54.324"><stop offset="0" style="stop-color:#FFFFFF"/><stop offset="0.106" style="stop-color:#FAFDFF"/><stop offset="0.2379" style="stop-color:#EAF9FD"/><stop offset="0.3838" style="stop-color:#D1F2FB"/><stop offset="0.5396" style="stop-color:#ADE8F8"/><stop offset="0.7034" style="stop-color:#80DBF3"/><stop offset="0.8712" style="stop-color:#49CBEE"/><stop offset="1" style="stop-color:#1ABEEA"/></linearGradient><path d="M18.734,57.631c0,1.814,1.498,3.287,3.346,3.287c1.85,0,3.346-1.473,3.346-3.287    c0-1.813-1.496-3.285-3.346-3.285C20.232,54.346,18.734,55.818,18.734,57.631z" fill="url(#SVGID_39_)"/><path d="M21.043,56.93c0,0.951,0.754,1.721,1.684,1.721s1.682-0.77,1.682-1.721c0-0.947-0.752-1.717-1.682-1.717    S21.043,55.982,21.043,56.93z" fill="#FFFFFF"/><linearGradient gradientUnits="userSpaceOnUse" id="SVGID_40_" x1="48.397" x2="48.5038" y1="53.4873" y2="48.7852"><stop offset="0.0057" style="stop-color:#931619"/><stop offset="0.5031" style="stop-color:#8F1517"/><stop offset="0.9831" style="stop-color:#841012"/><stop offset="1" style="stop-color:#831012"/></linearGradient><path d="M70.621,51.691c0,1.143-9.932,2.068-22.182,2.068c-12.252,0-22.184-0.926-22.184-2.068    s9.932-3.217,22.184-3.217C60.689,48.475,70.621,50.549,70.621,51.691z" fill="url(#SVGID_40_)"/><linearGradient gradientUnits="userSpaceOnUse" id="SVGID_41_" x1="48.2246" x2="48.5311" y1="63.4814" y2="45.9362"><stop offset="0.0057" style="stop-color:#C8252C"/><stop offset="0.0934" style="stop-color:#CC292C"/><stop offset="0.1781" style="stop-color:#D7342E"/><stop offset="0.2614" style="stop-color:#E94830"/><stop offset="0.2825" style="stop-color:#EF4E31"/><stop offset="0.5681" style="stop-color:#CF362A"/><stop offset="0.8318" style="stop-color:#B92526"/><stop offset="1" style="stop-color:#B11F24"/></linearGradient><path d="M70.621,51.232c0,1.143-9.932,2.066-22.182,2.066c-12.252,0-22.184-0.924-22.184-2.066    s9.932-3.219,22.184-3.219C60.689,48.014,70.621,50.09,70.621,51.232z" fill="url(#SVGID_41_)"/><linearGradient gradientTransform="matrix(0.3356 0 0 0.3356 1501.626 -334.6899)" gradientUnits="userSpaceOnUse" id="SVGID_42_" x1="-4394.6392" x2="-4381.8345" y1="1185.2393" y2="1185.2393"><stop offset="0.0057" style="stop-color:#97A3A9"/><stop offset="1" style="stop-color:#D9DBDC"/></linearGradient><path d="M29.245,61.203h-0.087c-1.268,0-2.295,0.842-2.295,1.873c0,1.033,1.027,1.873,2.295,1.873    c1.308,0,2.002-1.426,2.002-2.455c0-0.4-0.109-0.699-0.338-0.924C30.444,61.203,29.914,61.203,29.245,61.203z" fill="url(#SVGID_42_)"/><radialGradient cx="-4387.6069" cy="1185.6143" fx="-4388.7495" fy="1184.0713" gradientTransform="matrix(0.3365 0 0 0.3305 1505.3638 -328.8704)" gradientUnits="userSpaceOnUse" id="SVGID_43_" r="4.1638"><stop offset="0.0057" style="stop-color:#F8E17E"/><stop offset="1" style="stop-color:#EE8031"/></radialGradient><path d="M30.528,62.494c0,0.688-0.455,1.838-1.37,1.838c-0.92,0-1.662-0.563-1.662-1.256    s0.742-1.25,1.662-1.25C30.073,61.826,30.528,61.803,30.528,62.494z" fill="url(#SVGID_43_)"/><linearGradient gradientTransform="matrix(-0.3356 0 0 0.3356 -301.0542 -334.6899)" gradientUnits="userSpaceOnUse" id="SVGID_44_" x1="-1105.2612" x2="-1092.4526" y1="1185.2393" y2="1185.2393"><stop offset="0.0057" style="stop-color:#97A3A9"/><stop offset="1" style="stop-color:#D9DBDC"/></linearGradient><path d="M67.412,61.203h0.086c1.266,0,2.295,0.842,2.295,1.873c0,1.033-1.029,1.873-2.295,1.873    c-1.309,0-2.004-1.426-2.004-2.455c0-0.4,0.109-0.699,0.338-0.924C66.209,61.203,66.738,61.203,67.412,61.203z" fill="url(#SVGID_44_)"/><radialGradient cx="-1097.8516" cy="1185.6143" fx="-1098.9939" fy="1184.0713" gradientTransform="matrix(-0.3365 0 0 0.3305 -301.7061 -328.8704)" gradientUnits="userSpaceOnUse" id="SVGID_45_" r="4.1635"><stop offset="0.0057" style="stop-color:#F8E17E"/><stop offset="1" style="stop-color:#EE8031"/></radialGradient><path d="M66.127,62.494c0,0.688,0.451,1.838,1.371,1.838s1.66-0.563,1.66-1.256s-0.74-1.25-1.66-1.25    S66.127,61.803,66.127,62.494z" fill="url(#SVGID_45_)"/><g><linearGradient gradientUnits="userSpaceOnUse" id="SVGID_46_" x1="48.6636" x2="48.6636" y1="74.4951" y2="70.2548"><stop offset="0.0057" style="stop-color:#97A3A9"/><stop offset="1" style="stop-color:#D9DBDC"/></linearGradient><path d="M80.273,66.287c-31.229,11.525-55.648,4.545-66.25,0.131c-0.604,0.174-0.923,0.488-0.923,0.984     c0,0.148,0.032,0.297,0.093,0.449c1.283,3.285,16.672,5.885,35.471,5.885c19.637,0,35.563-2.838,35.563-6.334     c0-0.115-0.02-0.219-0.051-0.316C83.896,66.307,82.52,66.133,80.273,66.287z" fill="url(#SVGID_46_)"/><linearGradient gradientUnits="userSpaceOnUse" id="SVGID_47_" x1="47.1489" x2="47.1489" y1="74.4766" y2="70.2722"><stop offset="0.0057" style="stop-color:#97A3A9"/><stop offset="1" style="stop-color:#D9DBDC"/></linearGradient><path d="M80.273,66.287c-5.914,0.406-17.848,3.094-31.609,3.094c-16.857,0-30.977-4.033-34.641-2.963     C24.625,70.832,49.045,77.813,80.273,66.287z" fill="url(#SVGID_47_)"/><linearGradient gradientUnits="userSpaceOnUse" id="SVGID_48_" x1="47.1489" x2="47.1489" y1="74.4395" y2="63.9412"><stop offset="0.0057" style="stop-color:#7F898F"/><stop offset="1" style="stop-color:#D9DBDC"/></linearGradient><path d="M80.273,66.287c-5.914,0.406-17.848,3.094-31.609,3.094c-16.857,0-30.977-4.033-34.641-2.963     C24.625,70.832,49.045,77.813,80.273,66.287z" fill="url(#SVGID_48_)"/></g><g><linearGradient gradientTransform="matrix(0.2608 0.046 -0.0782 0.4433 1264.3142 -34.0195)" gradientUnits="userSpaceOnUse" id="SVGID_49_" x1="-4361.5391" x2="-4355.3247" y1="703.4912" y2="671.9872"><stop offset="0.0057" style="stop-color:#97A3A9"/><stop offset="1" style="stop-color:#D9DBDC"/></linearGradient><path d="M75.729,70.742c-0.625,3.48-1.977,6.156-3.021,5.977c-1.041-0.18-1.379-3.152-0.754-6.635     c0.625-3.484,1.979-6.162,3.021-5.979C76.02,64.285,76.357,67.254,75.729,70.742z" fill="url(#SVGID_49_)"/><linearGradient gradientTransform="matrix(0.32 0.0564 -0.0782 0.4433 1522.8169 -62.7229)" gradientUnits="userSpaceOnUse" id="SVGID_50_" x1="-4338.5361" x2="-4317.0454" y1="940.0156" y2="831.0638"><stop offset="0.0057" style="stop-color:#97A3A9"/><stop offset="1" style="stop-color:#D9DBDC"/></linearGradient><path d="M72.707,76.719c0.4,0.07,0.846-0.281,1.279-0.938c0.797-5.588,0.314-8.727-0.451-10.482     c-0.637,1.08-1.229,2.803-1.582,4.785C71.328,73.566,71.666,76.539,72.707,76.719z" fill="url(#SVGID_50_)"/></g><g><linearGradient gradientTransform="matrix(0.2608 -0.046 0.0782 0.4433 1323.8005 -278.5815)" gradientUnits="userSpaceOnUse" id="SVGID_51_" x1="-5065.2681" x2="-5059.0684" y1="277.1396" y2="245.7098"><stop offset="0.0057" style="stop-color:#97A3A9"/><stop offset="1" style="stop-color:#D9DBDC"/></linearGradient><path d="M25.935,70.084c0.623,3.482,0.285,6.455-0.761,6.635c-1.039,0.18-2.391-2.496-3.018-5.977     c-0.625-3.488-0.287-6.457,0.758-6.637C23.955,63.922,25.31,66.6,25.935,70.084z" fill="url(#SVGID_51_)"/><linearGradient gradientTransform="matrix(0.32 -0.0564 0.0782 0.4433 1557.0029 -393.3577)" gradientUnits="userSpaceOnUse" id="SVGID_52_" x1="-4912.1851" x2="-4890.7148" y1="513.6064" y2="404.7603"><stop offset="0.0057" style="stop-color:#97A3A9"/><stop offset="1" style="stop-color:#D9DBDC"/></linearGradient><path d="M25.174,76.719c0.402-0.068,0.697-0.551,0.875-1.309c-1.199-5.52-2.746-8.307-4.072-9.703     c-0.217,1.23-0.176,3.047,0.18,5.035C22.783,74.223,24.135,76.898,25.174,76.719z" fill="url(#SVGID_52_)"/></g></g><g><g><linearGradient gradientTransform="matrix(0.9131 -0.527 0.527 0.9131 1613.6592 464.5781)" gradientUnits="userSpaceOnUse" id="SVGID_53_" x1="-1070.3633" x2="-1067.3745" y1="-1064.9531" y2="-1064.9531"><stop offset="0" style="stop-color:#8E9093"/><stop offset="0.181" style="stop-color:#A1A3A5"/><stop offset="0.5311" style="stop-color:#D0D2D3"/><stop offset="0.5398" style="stop-color:#CED0D1"/><stop offset="0.7289" style="stop-color:#ACAEB0"/><stop offset="0.8853" style="stop-color:#989A9C"/><stop offset="0.9887" style="stop-color:#909295"/></linearGradient><polygon fill="url(#SVGID_53_)" points="79.494,56.391 76.783,57.924 74.438,53.934 77.146,52.4    "/><linearGradient gradientTransform="matrix(1.1959 -0.6911 0.527 0.9131 1924.3555 267.8916)" gradientUnits="userSpaceOnUse" id="SVGID_54_" x1="-1084.1147" x2="-1079.0747" y1="-1049.2124" y2="-1049.2124"><stop offset="0" style="stop-color:#8E9093"/><stop offset="0.181" style="stop-color:#A1A3A5"/><stop offset="0.5311" style="stop-color:#D0D2D3"/><stop offset="0.5398" style="stop-color:#CED0D1"/><stop offset="0.7289" style="stop-color:#ACAEB0"/><stop offset="0.8853" style="stop-color:#989A9C"/><stop offset="0.9887" style="stop-color:#909295"/></linearGradient><polygon fill="url(#SVGID_54_)" points="82.125,57.102 76.096,60.52 74.217,57.326 80.25,53.908    "/><linearGradient gradientTransform="matrix(0.7863 -0.4542 0.3879 0.6719 1322.2988 282.9399)" gradientUnits="userSpaceOnUse" id="SVGID_55_" x1="-1068.144" x2="-1057.6357" y1="-1041.189" y2="-1041.189"><stop offset="0" style="stop-color:#B9966F"/><stop offset="0.1741" style="stop-color:#C7A582"/><stop offset="0.5262" style="stop-color:#EBCBB3"/><stop offset="0.5311" style="stop-color:#ECCCB4"/><stop offset="0.5539" style="stop-color:#EBCAAF"/><stop offset="0.7371" style="stop-color:#E6BB8D"/><stop offset="0.8886" style="stop-color:#E2B279"/><stop offset="0.9887" style="stop-color:#E1AF71"/></linearGradient><polygon fill="url(#SVGID_55_)" points="92.313,72.01 84.141,76.639 74.137,59.611 82.303,54.982    "/><linearGradient gradientTransform="matrix(3.0634 0 0 3.0634 552.9199 -836.9355)" gradientUnits="userSpaceOnUse" id="SVGID_56_" x1="-153.1855" x2="-150.5394" y1="297.4668" y2="297.4668"><stop offset="0" style="stop-color:#B9966F"/><stop offset="0.1741" style="stop-color:#C7A582"/><stop offset="0.5262" style="stop-color:#EBCBB3"/><stop offset="0.5311" style="stop-color:#ECCCB4"/><stop offset="0.5539" style="stop-color:#EBCAAF"/><stop offset="0.7371" style="stop-color:#E6BB8D"/><stop offset="0.8886" style="stop-color:#E2B279"/><stop offset="0.9887" style="stop-color:#E1AF71"/></linearGradient><path d="M92.283,72.021c0.219,0.371-1.422,1.693-3.664,2.965c-2.236,1.271-4.23,2-4.443,1.637     c-0.221-0.367,1.424-1.695,3.662-2.963C90.076,72.385,92.068,71.654,92.283,72.021z" fill="url(#SVGID_56_)"/><g><radialGradient cx="-116.7217" cy="-634.4438" gradientTransform="matrix(0.7413 -0.4202 0.4279 0.728 425.9795 451.7329)" gradientUnits="userSpaceOnUse" id="SVGID_57_" r="20.9008"><stop offset="0.0057" style="stop-color:#FFFFFF"/><stop offset="0.4213" style="stop-color:#FDFDFD"/><stop offset="0.571" style="stop-color:#F6F6F7"/><stop offset="0.6777" style="stop-color:#EBEBEB"/><stop offset="0.764" style="stop-color:#DADADB"/><stop offset="0.8379" style="stop-color:#C4C4C5"/><stop offset="0.9034" style="stop-color:#A8A9AB"/><stop offset="0.9611" style="stop-color:#898A8C"/><stop offset="1" style="stop-color:#6F7073"/></radialGradient><path d="M58.281,23.378c-8.552,4.852-11.481,15.593-6.543,23.993      c4.938,8.396,15.871,11.273,24.424,6.426c8.551-4.848,11.484-15.59,6.545-23.988C77.771,21.408,66.836,18.53,58.281,23.378z       M75.145,52.07c-7.578,4.303-17.273,1.748-21.654-5.697c-4.375-7.446-1.775-16.969,5.807-21.267      c7.582-4.3,17.277-1.747,21.652,5.698C85.33,38.252,82.729,47.771,75.145,52.07z" fill="url(#SVGID_57_)"/><radialGradient cx="-116.7217" cy="-634.4414" gradientTransform="matrix(0.7413 -0.4202 0.4279 0.728 425.9795 451.7329)" gradientUnits="userSpaceOnUse" id="SVGID_58_" r="18.5274"><stop offset="0.0057" style="stop-color:#231F20"/><stop offset="0.3901" style="stop-color:#252122"/><stop offset="0.5286" style="stop-color:#2B2829"/><stop offset="0.6272" style="stop-color:#353334"/><stop offset="0.7065" style="stop-color:#454445"/><stop offset="0.7741" style="stop-color:#58595B"/><stop offset="0.7797" style="stop-color:#5A5B5D"/><stop offset="0.8854" style="stop-color:#898A8C"/><stop offset="1" style="stop-color:#C0C1C3"/></radialGradient><path d="M59.297,25.106c-7.582,4.298-10.182,13.82-5.807,21.267c4.381,7.445,14.076,10,21.654,5.697      c7.584-4.299,10.186-13.818,5.805-21.266C76.574,23.359,66.879,20.807,59.297,25.106z M74.131,50.342      c-6.605,3.748-15.061,1.525-18.875-4.967c-3.817-6.492-1.553-14.791,5.055-18.54c6.613-3.745,15.063-1.523,18.877,4.968      C83.006,38.296,80.74,46.596,74.131,50.342z" fill="url(#SVGID_58_)"/><radialGradient cx="-97.4482" cy="-580.4019" gradientTransform="matrix(0.7249 -0.4109 0.4184 0.712 363.5723 407.9475)" gradientUnits="userSpaceOnUse" id="SVGID_59_" r="29.605"><stop offset="0.0057" style="stop-color:#FFFFFF"/><stop offset="0.1343" style="stop-color:#F8F8F8"/><stop offset="0.3225" style="stop-color:#E4E5E5"/><stop offset="0.5473" style="stop-color:#C4C5C6"/><stop offset="0.7981" style="stop-color:#98999B"/><stop offset="1" style="stop-color:#6F7073"/></radialGradient><path d="M59.367,23.979c4.037-2.288,8.615-2.817,12.818-1.827c-4.441-1.293-9.395-0.861-13.721,1.592      c-8.367,4.743-11.232,15.248-6.402,23.465c2.5,4.252,6.566,7.055,11.074,8.113c-4.145-1.205-7.842-3.908-10.176-7.877      C48.135,39.23,51,28.725,59.367,23.979z" fill="url(#SVGID_59_)"/><radialGradient cx="-73.7197" cy="-556.478" gradientTransform="matrix(0.7413 -0.4202 0.4279 0.728 376.376 417.7729)" gradientUnits="userSpaceOnUse" id="SVGID_60_" r="22.7667"><stop offset="0.0057" style="stop-color:#FFFFFF"/><stop offset="0.1737" style="stop-color:#F8F8F8"/><stop offset="0.4196" style="stop-color:#E4E5E6"/><stop offset="0.7116" style="stop-color:#C4C6C7"/><stop offset="1" style="stop-color:#9EA0A3"/></radialGradient><path d="M71.229,23.681c3.771,1.1,7.137,3.565,9.262,7.177c4.396,7.479,1.789,17.045-5.828,21.365      c-3.68,2.084-7.852,2.566-11.674,1.668c4.041,1.172,8.551,0.783,12.494-1.451c7.617-4.32,10.229-13.887,5.828-21.367      C79.035,27.201,75.33,24.648,71.229,23.681z" fill="url(#SVGID_60_)"/></g><path d="M79.191,31.799c3.816,6.495,1.555,14.799-5.057,18.551c-6.609,3.748-15.068,1.52-18.885-4.975     c-3.816-6.492-1.553-14.795,5.059-18.545C66.92,23.081,75.375,25.309,79.191,31.799z" fill="#B6E4F9"/></g><g><path d="M70.428,48.824c-0.002,0-0.002-0.002-0.002-0.002s-0.008-0.002-0.014-0.002     C70.416,48.82,70.422,48.822,70.428,48.824z" fill="none"/><linearGradient gradientUnits="userSpaceOnUse" id="SVGID_61_" x1="66.127" x2="68.4665" y1="57.373" y2="21.6943"><stop offset="0" style="stop-color:#FFFFFF"/><stop offset="0.0852" style="stop-color:#F7FBFD"/><stop offset="0.2204" style="stop-color:#E0F2F7"/><stop offset="0.3889" style="stop-color:#BAE2ED"/><stop offset="0.5841" style="stop-color:#86CBDF"/><stop offset="0.7988" style="stop-color:#44AFCD"/><stop offset="1" style="stop-color:#0092BB"/></linearGradient><path d="M77.08,48.105c4.248-4.244,5.289-10.9,2.111-16.307c-3.816-6.49-12.271-8.718-18.883-4.969     c-3.297,1.871-5.514,4.872-6.432,8.219C67.379,34.945,70.883,35.344,77.08,48.105z" fill="url(#SVGID_61_)"/><path d="M75.492,49.467c0.188-0.139,0.373-0.281,0.553-0.428c-0.281-0.072-0.563-0.148-0.855-0.215     C75.291,49.033,75.391,49.25,75.492,49.467z" fill="#882225"/><path d="M75.174,48.82c-0.16-0.02-2.252-0.248-5.709-0.518c0.277,0.584,0.566,1.201,0.877,1.865     c0.234,0.502,0.432,1.006,0.563,1.512c1.105-0.301,2.191-0.744,3.23-1.33c0.475-0.271,0.926-0.566,1.357-0.883     c-0.102-0.217-0.201-0.434-0.303-0.643C75.186,48.822,75.18,48.82,75.174,48.82z" fill="#882225"/><path d="M67.594,37.657c2.988,1.515,4.467,4.491,7.594,11.165c0.002,0,0.002,0.002,0.002,0.002     c0.293,0.066,0.574,0.143,0.855,0.215c0.365-0.295,0.709-0.607,1.035-0.934c-6.197-12.762-9.701-13.16-23.203-13.057     c-0.096,0.346-0.174,0.696-0.24,1.051C60.334,36.044,64.508,36.096,67.594,37.657z" fill="#882225"/><linearGradient gradientTransform="matrix(0.3356 0 0 0.3356 1460.4741 -346.2148)" gradientUnits="userSpaceOnUse" id="SVGID_62_" x1="-4161.5225" x2="-4158.6123" y1="1180.5068" y2="1136.1234"><stop offset="0" style="stop-color:#B6E4F9"/><stop offset="0.1086" style="stop-color:#AEDFF5"/><stop offset="0.2811" style="stop-color:#97D1E8"/><stop offset="0.4957" style="stop-color:#71BAD5"/><stop offset="0.7442" style="stop-color:#3D9AB9"/><stop offset="1" style="stop-color:#007499"/></linearGradient><path d="M63.768,40.225c2.113,1.072,3.295,3.051,5.25,7.135c2.059,0.404,4.121,0.889,6.17,1.463     c-3.127-6.674-4.605-9.65-7.594-11.165c-3.086-1.562-7.26-1.613-13.957-1.558c-0.141,0.721-0.221,1.453-0.238,2.191     c0.006,0.221,0.014,0.443,0.027,0.664C58.293,38.928,61.418,39.036,63.768,40.225z" fill="url(#SVGID_62_)"/><linearGradient gradientTransform="matrix(0.3356 0 0 0.3356 1460.4741 -346.2148)" gradientUnits="userSpaceOnUse" id="SVGID_63_" x1="-4170.7803" x2="-4168.4224" y1="1181.2002" y2="1145.2428"><stop offset="0" style="stop-color:#FFFFFF"/><stop offset="0.0852" style="stop-color:#F7FCFD"/><stop offset="0.2204" style="stop-color:#E0F3F8"/><stop offset="0.3889" style="stop-color:#BAE4F0"/><stop offset="0.5841" style="stop-color:#86D0E4"/><stop offset="0.7988" style="stop-color:#44B6D5"/><stop offset="1" style="stop-color:#009BC6"/></linearGradient><path d="M66.887,46.969c0.709,0.121,1.42,0.25,2.131,0.391c-1.955-4.084-3.137-6.063-5.25-7.135     c-2.35-1.188-5.475-1.297-10.342-1.27c0.111,1.771,0.539,3.543,1.311,5.236c1.318-1.377,3.184-2.24,5.258-2.24     C63.244,41.951,65.984,44.066,66.887,46.969z" fill="url(#SVGID_63_)"/><linearGradient gradientTransform="matrix(0.3356 0 0 0.3356 1460.4741 -346.2148)" gradientUnits="userSpaceOnUse" id="SVGID_64_" x1="-4172.5278" x2="-4170.1719" y1="1181.0791" y2="1145.1531"><stop offset="0" style="stop-color:#FFFFFF"/><stop offset="0.0852" style="stop-color:#F7FCFD"/><stop offset="0.2204" style="stop-color:#E0F3F8"/><stop offset="0.3889" style="stop-color:#BAE4F0"/><stop offset="0.5841" style="stop-color:#86D0E4"/><stop offset="0.7988" style="stop-color:#44B6D5"/><stop offset="1" style="stop-color:#009BC6"/></linearGradient><path d="M59.994,43.086c-1.896,0-3.586,0.857-4.695,2.195c0.053,0.1,0.104,0.197,0.16,0.295     c0.029,0.049,0.063,0.098,0.092,0.146c3.275,0.174,6.645,0.504,10.041,1.033C64.68,44.602,62.518,43.086,59.994,43.086z" fill="url(#SVGID_64_)"/><linearGradient gradientTransform="matrix(0.3356 0 0 0.3356 1461.4741 -342.6035)" gradientUnits="userSpaceOnUse" id="SVGID_65_" x1="-4197.5225" x2="-4154.876" y1="1153.3486" y2="1153.3486"><stop offset="0" style="stop-color:#7E9CAC"/><stop offset="0.5149" style="stop-color:#7A96A4"/><stop offset="1" style="stop-color:#758C97"/></linearGradient><path d="M59.994,43.086c2.523,0,4.686,1.516,5.598,3.67c0.432,0.068,0.861,0.139,1.295,0.213     c-0.902-2.902-3.643-5.018-6.893-5.018c-2.074,0-3.939,0.863-5.258,2.24c0.168,0.369,0.359,0.73,0.563,1.09     C56.408,43.943,58.098,43.086,59.994,43.086z" fill="url(#SVGID_65_)"/><linearGradient gradientUnits="userSpaceOnUse" id="SVGID_66_" x1="52.3848" x2="75.5151" y1="47.2725" y2="47.2725"><stop offset="0" style="stop-color:#7E9CAC"/><stop offset="0.5149" style="stop-color:#7A96A4"/><stop offset="1" style="stop-color:#758C97"/></linearGradient><path d="M75.188,48.822c-2.049-0.574-4.111-1.059-6.17-1.463c-0.711-0.141-1.422-0.27-2.131-0.391     c-0.434-0.074-0.863-0.145-1.295-0.213c-3.396-0.529-6.766-0.859-10.041-1.033c0.297,0.494,0.619,0.961,0.961,1.406     c0.123,0.16,0.246,0.316,0.373,0.473c3.391,0.115,6.463,0.281,9.078,0.451c0.404,0.027,0.795,0.053,1.174,0.078     c0.83,0.061,1.611,0.117,2.328,0.172c3.457,0.27,5.549,0.498,5.709,0.518C75.18,48.82,75.188,48.822,75.188,48.822z" fill="url(#SVGID_66_)"/><g><path d="M70.342,50.168c-0.311-0.664-0.6-1.281-0.877-1.865c-0.717-0.055-1.498-0.111-2.328-0.172l-1.174-0.078      c-2.615-0.17-5.688-0.336-9.078-0.451c0.029,0.033,0.061,0.064,0.088,0.098c3.504,3.807,8.928,5.342,13.932,3.98      C70.773,51.174,70.576,50.67,70.342,50.168z" fill="#882225"/></g></g><linearGradient gradientUnits="userSpaceOnUse" id="SVGID_67_" x1="67.5313" x2="70.1698" y1="62.124" y2="21.8865"><stop offset="0" style="stop-color:#FFFFFF"/><stop offset="0.0852" style="stop-color:#F7FCFE"/><stop offset="0.2204" style="stop-color:#E0F5FB"/><stop offset="0.3889" style="stop-color:#BAE9F6"/><stop offset="0.5841" style="stop-color:#86D9F0"/><stop offset="0.7988" style="stop-color:#44C4E8"/><stop offset="1" style="stop-color:#00AEDF"/></linearGradient><path d="M78.979,31.723c-3.596-6.117-11.564-8.217-17.797-4.684c-1.213,0.688-2.27,1.542-3.16,2.512    c0.666-0.588,1.402-1.118,2.209-1.576c6.23-3.533,14.199-1.434,17.797,4.684c2.91,4.948,2.059,11-1.66,15.01    c0.215-0.188,0.424-0.377,0.623-0.576C80.994,43.092,81.975,36.816,78.979,31.723z" fill="url(#SVGID_67_)"/></g></g></svg>